<mxfile host="app.diagrams.net" modified="2020-07-31T07:23:29.485Z" agent="5.0 (Windows NT 10.0; Win64; x64) AppleWebKit/537.36 (KHTML, like Gecko) Chrome/84.0.4147.105 Safari/537.36" etag="SB7c5GuWUxQGP1gfjPvo" version="13.5.4" type="github">
  <diagram id="ZBoKyxhHMOjYiL0g7Aj6" name="Page-1">
    <mxGraphModel dx="1038" dy="548" grid="1" gridSize="5" guides="1" tooltips="1" connect="1" arrows="1" fold="1" page="1" pageScale="1" pageWidth="1169" pageHeight="827" math="0" shadow="1">
      <root>
        <mxCell id="0" />
        <mxCell id="1" parent="0" />
        <mxCell id="9_1TeLci1AawQfAboLmV-65" value="" style="shape=partialRectangle;whiteSpace=wrap;html=1;top=0;bottom=0;fillColor=none;rounded=0;shadow=1;labelBackgroundColor=none;sketch=0;opacity=98;align=left;strokeColor=#9C9C9C;" parent="1" vertex="1">
          <mxGeometry x="20" y="40" width="250" height="610" as="geometry" />
        </mxCell>
        <object label="批量更新会员" Class="MemberController" method="receiveMember" id="9_1TeLci1AawQfAboLmV-1">
          <mxCell style="rounded=1;whiteSpace=wrap;html=1;arcSize=40;fontColor=#000000;fillColor=#ffffc0;strokeColor=#ff0000;" parent="1" vertex="1">
            <mxGeometry x="30" y="60" width="120" height="40" as="geometry" />
          </mxCell>
        </object>
        <mxCell id="9_1TeLci1AawQfAboLmV-2" value="数据推送kafka" style="edgeStyle=orthogonalEdgeStyle;html=1;verticalAlign=bottom;endArrow=open;endSize=8;strokeColor=#ff0000;entryX=0.5;entryY=0;entryDx=0;entryDy=0;shadow=1;" parent="1" source="9_1TeLci1AawQfAboLmV-1" target="9_1TeLci1AawQfAboLmV-5" edge="1">
          <mxGeometry x="0.3333" relative="1" as="geometry">
            <mxPoint x="90" y="160" as="targetPoint" />
            <Array as="points">
              <mxPoint x="90" y="140" />
              <mxPoint x="90" y="140" />
            </Array>
            <mxPoint as="offset" />
          </mxGeometry>
        </mxCell>
        <mxCell id="9_1TeLci1AawQfAboLmV-31" style="edgeStyle=orthogonalEdgeStyle;rounded=1;orthogonalLoop=1;jettySize=auto;html=1;exitX=0.5;exitY=1;exitDx=0;exitDy=0;entryX=0.75;entryY=0;entryDx=0;entryDy=0;shadow=1;strokeColor=#FF0000;" parent="1" source="9_1TeLci1AawQfAboLmV-3" target="9_1TeLci1AawQfAboLmV-22" edge="1">
          <mxGeometry relative="1" as="geometry" />
        </mxCell>
        <object label="增量更新会员&lt;br&gt;(不存中间表)" class="MemberController" method="receiveOneMember" id="9_1TeLci1AawQfAboLmV-3">
          <mxCell style="rounded=1;whiteSpace=wrap;html=1;arcSize=40;fontColor=#000000;fillColor=#ffffc0;strokeColor=#ff0000;" parent="1" vertex="1">
            <mxGeometry x="165" y="60" width="90" height="40" as="geometry" />
          </mxCell>
        </object>
        <mxCell id="9_1TeLci1AawQfAboLmV-5" value="kafka" style="shape=datastore;whiteSpace=wrap;html=1;" parent="1" vertex="1">
          <mxGeometry x="60" y="160" width="60" height="30" as="geometry" />
        </mxCell>
        <object label="监听kafka&lt;br&gt;转存中间表" placeholders="1" 监听器="MemberConsumerListener" Job="SyncKafkaConsumerHistoryToHybrisCronjob" id="9_1TeLci1AawQfAboLmV-7">
          <mxCell style="rounded=1;whiteSpace=wrap;html=1;arcSize=40;fontColor=#000000;fillColor=#ffffc0;strokeColor=#ff0000;labelBackgroundColor=none;labelBorderColor=none;" parent="1" vertex="1">
            <mxGeometry x="30" y="230" width="120" height="40" as="geometry" />
          </mxCell>
        </object>
        <mxCell id="9_1TeLci1AawQfAboLmV-8" value="" style="edgeStyle=orthogonalEdgeStyle;html=1;verticalAlign=bottom;endArrow=open;endSize=8;strokeColor=#ff0000;shadow=1;entryX=0.5;entryY=0;entryDx=0;entryDy=0;" parent="1" source="9_1TeLci1AawQfAboLmV-7" target="9_1TeLci1AawQfAboLmV-14" edge="1">
          <mxGeometry relative="1" as="geometry">
            <mxPoint x="90" y="320" as="targetPoint" />
          </mxGeometry>
        </mxCell>
        <mxCell id="9_1TeLci1AawQfAboLmV-9" value="" style="edgeStyle=orthogonalEdgeStyle;html=1;verticalAlign=bottom;endArrow=open;endSize=8;strokeColor=#ff0000;shadow=1;exitX=0.5;exitY=1;exitDx=0;exitDy=0;entryX=0.5;entryY=0;entryDx=0;entryDy=0;dashed=1;" parent="1" source="9_1TeLci1AawQfAboLmV-5" target="9_1TeLci1AawQfAboLmV-7" edge="1">
          <mxGeometry relative="1" as="geometry">
            <mxPoint x="90" y="230" as="targetPoint" />
            <mxPoint x="100" y="280" as="sourcePoint" />
          </mxGeometry>
        </mxCell>
        <mxCell id="9_1TeLci1AawQfAboLmV-20" style="edgeStyle=orthogonalEdgeStyle;rounded=0;orthogonalLoop=1;jettySize=auto;html=1;exitX=0.5;exitY=1;exitDx=0;exitDy=0;entryX=0.5;entryY=0;entryDx=0;entryDy=0;shadow=1;dashed=1;fillColor=#ffe6cc;strokeColor=#FF0000;" parent="1" source="9_1TeLci1AawQfAboLmV-14" target="9_1TeLci1AawQfAboLmV-18" edge="1">
          <mxGeometry relative="1" as="geometry" />
        </mxCell>
        <object label="JomooMbEcMember" 关联模型="JomooMbEcAuth,JomooMbEcRelation,JomooMbEcAddress" id="9_1TeLci1AawQfAboLmV-14">
          <mxCell style="shape=module;align=left;spacingLeft=20;align=center;verticalAlign=top;labelBackgroundColor=none;jettyWidth=18;jettyHeight=6;fillColor=#dae8fc;strokeColor=#6c8ebf;" parent="1" vertex="1">
            <mxGeometry x="20" y="310" width="140" height="30" as="geometry" />
          </mxCell>
        </object>
        <mxCell id="9_1TeLci1AawQfAboLmV-21" style="edgeStyle=orthogonalEdgeStyle;rounded=1;orthogonalLoop=1;jettySize=auto;html=1;exitX=0.5;exitY=1;exitDx=0;exitDy=0;entryX=0.25;entryY=0;entryDx=0;entryDy=0;shadow=1;strokeColor=#FF0000;" parent="1" source="9_1TeLci1AawQfAboLmV-18" target="9_1TeLci1AawQfAboLmV-22" edge="1">
          <mxGeometry relative="1" as="geometry">
            <mxPoint x="190" y="490" as="targetPoint" />
          </mxGeometry>
        </mxCell>
        <object label="定时作业&lt;br&gt;抽取中间表数据" Job="SyncMemberFromECToHybrisCronjob" id="9_1TeLci1AawQfAboLmV-18">
          <mxCell style="rounded=1;whiteSpace=wrap;html=1;arcSize=40;fontColor=#000000;fillColor=#ffffc0;strokeColor=#ff0000;labelBackgroundColor=none;" parent="1" vertex="1">
            <mxGeometry x="30" y="390" width="120" height="40" as="geometry" />
          </mxCell>
        </object>
        <mxCell id="9_1TeLci1AawQfAboLmV-25" value="" style="rounded=0;orthogonalLoop=1;jettySize=auto;html=1;endArrow=none;endFill=0;shadow=1;strokeColor=#FF0000;exitX=0.5;exitY=1;exitDx=0;exitDy=0;entryX=0.5;entryY=1;entryDx=0;entryDy=0;entryPerimeter=0;" parent="1" source="9_1TeLci1AawQfAboLmV-23" target="9_1TeLci1AawQfAboLmV-27" edge="1">
          <mxGeometry relative="1" as="geometry">
            <mxPoint x="150" y="405" as="sourcePoint" />
            <mxPoint x="60" y="620" as="targetPoint" />
          </mxGeometry>
        </mxCell>
        <mxCell id="9_1TeLci1AawQfAboLmV-26" value="" style="rounded=0;orthogonalLoop=1;jettySize=auto;html=1;endArrow=halfCircle;endFill=0;entryX=0.5;entryY=0.5;entryDx=0;entryDy=0;endSize=6;strokeWidth=1;shadow=1;exitX=0.5;exitY=0;exitDx=0;exitDy=0;" parent="1" source="9_1TeLci1AawQfAboLmV-28" target="9_1TeLci1AawQfAboLmV-27" edge="1">
          <mxGeometry relative="1" as="geometry">
            <mxPoint x="60" y="630" as="sourcePoint" />
          </mxGeometry>
        </mxCell>
        <mxCell id="9_1TeLci1AawQfAboLmV-27" value="" style="ellipse;whiteSpace=wrap;html=1;fontFamily=Helvetica;fontSize=12;fontColor=#000000;align=center;strokeColor=#000000;fillColor=#ffffff;points=[];aspect=fixed;resizable=0;shadow=1;labelBackgroundColor=none;" parent="1" vertex="1">
          <mxGeometry x="165" y="570" width="10" height="10" as="geometry" />
        </mxCell>
        <mxCell id="9_1TeLci1AawQfAboLmV-28" value="JomooMbMember" style="shape=module;align=left;spacingLeft=20;align=center;verticalAlign=top;shadow=1;labelBackgroundColor=none;jettyWidth=17;jettyHeight=6;fillColor=#d5e8d4;strokeColor=#82b366;" parent="1" vertex="1">
          <mxGeometry x="100" y="610" width="140" height="30" as="geometry" />
        </mxCell>
        <mxCell id="9_1TeLci1AawQfAboLmV-42" value="&lt;b&gt;1.筛选手机号符合规则的会员&lt;/b&gt;&lt;br&gt;手机号校验规则: 1开头的11位数字" style="shape=parallelogram;perimeter=parallelogramPerimeter;whiteSpace=wrap;html=1;fixedSize=1;rounded=0;shadow=1;labelBackgroundColor=none;sketch=0;fillColor=#ffffff;opacity=98;direction=west;size=0;" parent="1" vertex="1">
          <mxGeometry x="340" y="20" width="620" height="40" as="geometry" />
        </mxCell>
        <mxCell id="9_1TeLci1AawQfAboLmV-43" value="2.根据手机号判断会员是否存在" style="shape=parallelogram;perimeter=parallelogramPerimeter;whiteSpace=wrap;html=1;fixedSize=1;rounded=0;shadow=1;labelBackgroundColor=none;sketch=0;fillColor=#ffffff;opacity=98;direction=west;size=0;fontStyle=1" parent="1" vertex="1">
          <mxGeometry x="340" y="70" width="620" height="30" as="geometry" />
        </mxCell>
        <mxCell id="9_1TeLci1AawQfAboLmV-45" value="&lt;div&gt;&lt;span&gt;&lt;b&gt;3.1 新增会员信息(会员不存在)&lt;/b&gt;&lt;/span&gt;&lt;/div&gt;&lt;div&gt;&lt;span&gt;a.生成会员编号(code)&lt;/span&gt;&lt;/div&gt;&lt;div&gt;&lt;span&gt;b.设置来源平台(&lt;/span&gt;&lt;span&gt;sourcePlatform&lt;/span&gt;&lt;span&gt;)&lt;/span&gt;&lt;/div&gt;&lt;div&gt;c.设置手机号(mobileNumber)&lt;/div&gt;&lt;div&gt;&lt;span&gt;d.设置平台生成时间&lt;/span&gt;&lt;span&gt;(&lt;/span&gt;&lt;span&gt;platformCreatedTime)&lt;/span&gt;&lt;/div&gt;" style="shape=parallelogram;perimeter=parallelogramPerimeter;whiteSpace=wrap;html=1;fixedSize=1;rounded=0;shadow=1;labelBackgroundColor=none;sketch=0;fillColor=#ffffff;opacity=98;direction=west;size=0;align=left;" parent="1" vertex="1">
          <mxGeometry x="340" y="110" width="240" height="120" as="geometry" />
        </mxCell>
        <mxCell id="9_1TeLci1AawQfAboLmV-46" value="&lt;div&gt;&lt;b&gt;&lt;font color=&quot;#ff0000&quot;&gt;全量更新&lt;/font&gt;会员信息&lt;/b&gt;&lt;/div&gt;&lt;div&gt;&lt;b&gt;&lt;font color=&quot;#ff0000&quot;&gt;(当前请求有数据就更新)&lt;/font&gt;&lt;/b&gt;&lt;/div&gt;&lt;div&gt;姓名(name)&lt;/div&gt;&lt;div&gt;&lt;span&gt;身份证号(idCard)&lt;/span&gt;&lt;/div&gt;&lt;div&gt;&lt;div&gt;昵称(nickName)&lt;/div&gt;&lt;div&gt;身高(height)&lt;/div&gt;&lt;div&gt;体重(weight)&lt;/div&gt;&lt;div&gt;生日(birthday)&lt;/div&gt;&lt;div&gt;性别(sex)&lt;/div&gt;&lt;div&gt;电话号码(teleNumber)&lt;/div&gt;&lt;div&gt;邮箱(email)&lt;/div&gt;&lt;div&gt;微信(wechat)&lt;/div&gt;&lt;div&gt;QQ(qq)&lt;/div&gt;&lt;div&gt;微博(weibo)&lt;/div&gt;&lt;div&gt;是否助销会员(ifHelp)&lt;/div&gt;&lt;div&gt;会员等级(level)&lt;/div&gt;&lt;div&gt;学历(education)&lt;/div&gt;&lt;div&gt;邀请人(inviter)&lt;/div&gt;&lt;div&gt;助销人(saleHelper)&lt;/div&gt;&lt;/div&gt;" style="shape=parallelogram;perimeter=parallelogramPerimeter;whiteSpace=wrap;html=1;fixedSize=1;rounded=0;shadow=1;labelBackgroundColor=none;sketch=0;fillColor=#ffffff;opacity=98;direction=west;size=0;align=left;" parent="1" vertex="1">
          <mxGeometry x="340" y="250" width="240" height="360" as="geometry" />
        </mxCell>
        <mxCell id="9_1TeLci1AawQfAboLmV-47" value="&lt;div&gt;&lt;span&gt;&lt;b&gt;3.2 修改会员信息(会员已存在)&lt;/b&gt;&lt;/span&gt;&lt;/div&gt;&lt;div&gt;&lt;span&gt;判断当前请求的平台优先级是否高于会员的来源平台&lt;/span&gt;&lt;/div&gt;" style="shape=parallelogram;perimeter=parallelogramPerimeter;whiteSpace=wrap;html=1;fixedSize=1;rounded=0;shadow=1;labelBackgroundColor=none;sketch=0;fillColor=#ffffff;opacity=98;direction=west;size=0;align=center;" parent="1" vertex="1">
          <mxGeometry x="600" y="110" width="360" height="30" as="geometry" />
        </mxCell>
        <mxCell id="9_1TeLci1AawQfAboLmV-49" value="&lt;div&gt;&lt;span&gt;优先级高&lt;/span&gt;&lt;/div&gt;" style="shape=parallelogram;perimeter=parallelogramPerimeter;whiteSpace=wrap;html=1;fixedSize=1;rounded=0;shadow=1;labelBackgroundColor=none;sketch=0;fillColor=#ffffff;opacity=98;direction=west;size=0;align=center;fontStyle=1" parent="1" vertex="1">
          <mxGeometry x="600" y="150" width="169" height="20" as="geometry" />
        </mxCell>
        <mxCell id="9_1TeLci1AawQfAboLmV-50" value="&lt;div&gt;&lt;b&gt;&lt;font color=&quot;#ff0000&quot;&gt;全量更新&lt;/font&gt;会员信息&lt;/b&gt;&lt;/div&gt;&lt;div&gt;&lt;b&gt;&lt;font color=&quot;#ff0000&quot;&gt;(当前请求有数据就更新)&lt;/font&gt;&lt;/b&gt;&lt;/div&gt;&lt;div&gt;姓名(name)&lt;/div&gt;&lt;div&gt;&lt;span&gt;身份证号(idCard)&lt;/span&gt;&lt;/div&gt;&lt;div&gt;&lt;div&gt;昵称(nickName)&lt;/div&gt;&lt;div&gt;身高(height)&lt;/div&gt;&lt;div&gt;体重(weight)&lt;/div&gt;&lt;div&gt;生日(birthday)&lt;/div&gt;&lt;div&gt;性别(sex)&lt;/div&gt;&lt;div&gt;电话号码(teleNumber)&lt;/div&gt;&lt;div&gt;邮箱(email)&lt;/div&gt;&lt;div&gt;微信(wechat)&lt;/div&gt;&lt;div&gt;QQ(qq)&lt;/div&gt;&lt;div&gt;微博(weibo)&lt;/div&gt;&lt;div&gt;是否助销会员(ifHelp)&lt;/div&gt;&lt;div&gt;会员等级(level)&lt;/div&gt;&lt;div&gt;学历(education)&lt;/div&gt;&lt;div&gt;邀请人(inviter)&lt;/div&gt;&lt;div&gt;助销人(saleHelper)&lt;/div&gt;&lt;/div&gt;" style="shape=parallelogram;perimeter=parallelogramPerimeter;whiteSpace=wrap;html=1;fixedSize=1;rounded=0;shadow=1;labelBackgroundColor=none;sketch=0;fillColor=#ffffff;opacity=98;direction=west;size=0;align=left;" parent="1" vertex="1">
          <mxGeometry x="600" y="180" width="170" height="272.5" as="geometry" />
        </mxCell>
        <mxCell id="9_1TeLci1AawQfAboLmV-51" value="&lt;div&gt;&lt;span&gt;优先级低&lt;/span&gt;&lt;/div&gt;" style="shape=parallelogram;perimeter=parallelogramPerimeter;whiteSpace=wrap;html=1;fixedSize=1;rounded=0;shadow=1;labelBackgroundColor=none;sketch=0;fillColor=#ffffff;opacity=98;direction=west;size=0;align=center;fontStyle=1" parent="1" vertex="1">
          <mxGeometry x="791" y="150" width="169" height="20" as="geometry" />
        </mxCell>
        <mxCell id="9_1TeLci1AawQfAboLmV-52" value="&lt;div&gt;&lt;b&gt;&lt;font color=&quot;#994c00&quot;&gt;增量更新&lt;/font&gt;会员信息&lt;/b&gt;&lt;/div&gt;&lt;div&gt;&lt;b&gt;&lt;font color=&quot;#ff0000&quot;&gt;(会员信息为空时才更新)&lt;/font&gt;&lt;/b&gt;&lt;/div&gt;&lt;div&gt;姓名(name)&lt;/div&gt;&lt;div&gt;&lt;span&gt;身份证号(idCard)&lt;/span&gt;&lt;/div&gt;&lt;div&gt;&lt;div&gt;昵称(nickName)&lt;/div&gt;&lt;div&gt;身高(height)&lt;/div&gt;&lt;div&gt;体重(weight)&lt;/div&gt;&lt;div&gt;生日(birthday)&lt;/div&gt;&lt;div&gt;性别(sex)&lt;/div&gt;&lt;div&gt;电话号码(teleNumber)&lt;/div&gt;&lt;div&gt;邮箱(email)&lt;/div&gt;&lt;div&gt;微信(wechat)&lt;/div&gt;&lt;div&gt;QQ(qq)&lt;/div&gt;&lt;div&gt;微博(weibo)&lt;/div&gt;&lt;div&gt;是否助销会员(ifHelp)&lt;/div&gt;&lt;div&gt;会员等级(level)&lt;/div&gt;&lt;div&gt;学历(education)&lt;/div&gt;&lt;div&gt;邀请人(inviter)&lt;/div&gt;&lt;div&gt;助销人(saleHelper)&lt;/div&gt;&lt;/div&gt;" style="shape=parallelogram;perimeter=parallelogramPerimeter;whiteSpace=wrap;html=1;fixedSize=1;rounded=0;shadow=1;labelBackgroundColor=none;sketch=0;fillColor=#ffffff;opacity=98;direction=west;size=0;align=left;" parent="1" vertex="1">
          <mxGeometry x="791" y="180" width="169" height="272.5" as="geometry" />
        </mxCell>
        <mxCell id="9_1TeLci1AawQfAboLmV-54" value="&lt;div&gt;&lt;b&gt;&lt;span&gt;设置平台生成时间&lt;/span&gt;&lt;span&gt;(&lt;/span&gt;&lt;span&gt;platformCreatedTime)&lt;/span&gt;&lt;/b&gt;&lt;br&gt;&lt;/div&gt;&lt;div&gt;if(会员的平台生成时间为空){&lt;/div&gt;&lt;div&gt;&amp;nbsp; &amp;nbsp;平台生成时间 =&amp;nbsp;ifNull(请求数据的平台生成时间,当前时间)&lt;br&gt;&lt;/div&gt;&lt;div&gt;}else if(会员的平台生成时间非空){&lt;/div&gt;&lt;div&gt;&amp;nbsp; &amp;nbsp;if(请求数据的平台生成时间&amp;lt;会员的平台生成时间){&lt;/div&gt;&lt;div&gt;&amp;nbsp; &amp;nbsp; &amp;nbsp; &amp;nbsp;平台生成时间 =&amp;nbsp;ifNull(请求数据的平台生成时间,当前时间)&lt;/div&gt;&lt;div&gt;&amp;nbsp; &amp;nbsp;}&lt;/div&gt;&lt;div&gt;}&lt;br&gt;&lt;/div&gt;" style="shape=parallelogram;perimeter=parallelogramPerimeter;whiteSpace=wrap;html=1;fixedSize=1;rounded=0;shadow=1;labelBackgroundColor=none;sketch=0;fillColor=#ffffff;opacity=98;direction=west;size=0;align=left;" parent="1" vertex="1">
          <mxGeometry x="600" y="465" width="360" height="145" as="geometry" />
        </mxCell>
        <mxCell id="9_1TeLci1AawQfAboLmV-55" value="4.更新会员认证信息(&lt;span style=&quot;background-color: rgb(255 , 255 , 255) ; font-family: &amp;#34;jetbrains mono&amp;#34; ; font-size: 9.8pt&quot;&gt;JomooMbAuth&lt;/span&gt;&lt;span&gt;)&lt;br&gt;&lt;span style=&quot;font-weight: normal&quot;&gt;&lt;font color=&quot;#ff0000&quot;&gt;优先级高全量更新，优先级低增量更新&lt;/font&gt;&lt;/span&gt;&lt;br&gt;&lt;/span&gt;" style="shape=parallelogram;perimeter=parallelogramPerimeter;whiteSpace=wrap;html=1;fixedSize=1;rounded=0;shadow=1;labelBackgroundColor=none;sketch=0;fillColor=#ffffff;opacity=98;direction=west;size=0;fontStyle=1" parent="1" vertex="1">
          <mxGeometry x="340" y="630" width="620" height="40" as="geometry" />
        </mxCell>
        <mxCell id="9_1TeLci1AawQfAboLmV-56" value="5.更新会员关系(&lt;span style=&quot;background-color: rgb(255 , 255 , 255) ; font-family: &amp;#34;jetbrains mono&amp;#34; ; font-size: 9.8pt&quot;&gt;JomooMbRelation&lt;/span&gt;&lt;span&gt;)&lt;br&gt;&lt;/span&gt;&lt;span style=&quot;font-weight: 400&quot;&gt;&lt;font color=&quot;#ff0000&quot;&gt;优先级高全量更新，优先级低增量更新&lt;/font&gt;&lt;/span&gt;&lt;span&gt;&lt;br&gt;&lt;/span&gt;" style="shape=parallelogram;perimeter=parallelogramPerimeter;whiteSpace=wrap;html=1;fixedSize=1;rounded=0;shadow=1;labelBackgroundColor=none;sketch=0;fillColor=#ffffff;opacity=98;direction=west;size=0;fontStyle=1" parent="1" vertex="1">
          <mxGeometry x="340" y="680" width="620" height="40" as="geometry" />
        </mxCell>
        <mxCell id="9_1TeLci1AawQfAboLmV-57" value="6.更新会员地址(&lt;span style=&quot;background-color: rgb(255 , 255 , 255) ; font-family: &amp;#34;jetbrains mono&amp;#34; ; font-size: 9.8pt&quot;&gt;JomooMbAddress&lt;/span&gt;&lt;span&gt;)&lt;/span&gt;&lt;br&gt;&lt;span style=&quot;font-weight: 400&quot;&gt;&lt;font color=&quot;#ff0000&quot;&gt;优先级高全量更新，优先级低增量更新&lt;/font&gt;&lt;/span&gt;&lt;span&gt;&lt;br&gt;&lt;/span&gt;" style="shape=parallelogram;perimeter=parallelogramPerimeter;whiteSpace=wrap;html=1;fixedSize=1;rounded=0;shadow=1;labelBackgroundColor=none;sketch=0;fillColor=#ffffff;opacity=98;direction=west;size=0;fontStyle=1" parent="1" vertex="1">
          <mxGeometry x="340" y="730" width="620" height="40" as="geometry" />
        </mxCell>
        <mxCell id="9_1TeLci1AawQfAboLmV-32" value="数&#xa;据&#xa;清&#xa;洗&#xa;逻&#xa;辑&#xa;↓" style="swimlane;childLayout=stackLayout;horizontal=1;horizontalStack=1;resizeParent=1;resizeParentMax=0;resizeLast=0;collapsible=0;strokeColor=none;stackBorder=10;stackSpacing=-12;resizable=1;align=center;points=[];fontColor=#000000;shadow=1;dashed=1;labelBackgroundColor=none;rounded=0;sketch=0;direction=south;startSize=23;fontStyle=1;" parent="1" vertex="1">
          <mxGeometry x="300" y="20" width="20" height="750" as="geometry" />
        </mxCell>
        <object label="数据清洗" id="9_1TeLci1AawQfAboLmV-22">
          <mxCell style="swimlane;html=1;fontStyle=1;align=center;verticalAlign=middle;childLayout=stackLayout;horizontal=1;startSize=30;horizontalStack=0;resizeParent=0;resizeLast=1;container=0;collapsible=0;rounded=1;arcSize=30;strokeColor=#b85450;fillColor=#f8cecc;swimlaneFillColor=#ffffc0;dropTarget=0;labelBackgroundColor=none;shadow=1;dashed=1;" parent="1" vertex="1">
            <mxGeometry x="90" y="480" width="160" height="60" as="geometry" />
          </mxCell>
        </object>
        <mxCell id="9_1TeLci1AawQfAboLmV-23" value="清洗逻辑&amp;nbsp; ==&amp;gt;" style="text;html=1;strokeColor=none;fillColor=none;align=center;verticalAlign=middle;spacingLeft=4;spacingRight=4;whiteSpace=wrap;overflow=hidden;rotatable=0;fontColor=#000000;" parent="9_1TeLci1AawQfAboLmV-22" vertex="1">
          <mxGeometry y="30" width="160" height="30" as="geometry" />
        </mxCell>
        <mxCell id="9_1TeLci1AawQfAboLmV-30" value="逻辑" style="text;html=1;strokeColor=none;fillColor=none;align=center;verticalAlign=middle;spacingLeft=4;spacingRight=4;whiteSpace=wrap;overflow=hidden;rotatable=0;fontColor=#000000;" parent="9_1TeLci1AawQfAboLmV-22" vertex="1">
          <mxGeometry y="60" width="160" as="geometry" />
        </mxCell>
        <mxCell id="9_1TeLci1AawQfAboLmV-64" value="数据流向" style="swimlane;childLayout=stackLayout;horizontal=1;horizontalStack=1;resizeParent=1;resizeParentMax=0;resizeLast=0;collapsible=0;strokeColor=none;stackBorder=10;stackSpacing=-12;resizable=1;align=center;points=[];fontColor=#000000;shadow=1;dashed=1;labelBackgroundColor=none;rounded=0;sketch=0;direction=west;startSize=23;" parent="1" vertex="1">
          <mxGeometry x="20" y="20" width="250" height="20" as="geometry" />
        </mxCell>
      </root>
    </mxGraphModel>
  </diagram>
</mxfile>
